<svg width="144" height="144" viewBox="0 0 144 144" fill="none" xmlns="http://www.w3.org/2000/svg">
<circle cx="71.7558" cy="71.6328" r="71.6328" fill="#00C29F"/>
<path d="M59.6102 76.8808C58.4696 79.2019 56.6054 81.0584 54.3183 82.1509C52.0313 83.2433 49.4547 83.508 47.0042 82.9021C44.5537 82.2963 42.3721 80.8553 40.8115 78.8116C39.2508 76.7679 38.402 74.2407 38.402 71.6375C38.402 69.0344 39.2508 66.5071 40.8115 64.4634C42.3721 62.4197 44.5537 60.9787 47.0042 60.3729C49.4547 59.7671 52.0313 60.0317 54.3183 61.1241C56.6054 62.2166 58.4696 64.0731 59.6102 66.3943H71.7466C70.4996 60.7852 67.2974 55.8469 62.7509 52.5214C58.2045 49.1959 52.632 47.7162 47.0969 48.3645C41.5618 49.0128 36.4514 51.7437 32.7409 56.0363C29.0304 60.3288 26.9795 65.8824 26.9795 71.6375C26.9795 77.3926 29.0304 82.9462 32.7409 87.2388C36.4514 91.5313 41.5618 94.2623 47.0969 94.9106C52.632 95.5589 58.2045 94.0791 62.7509 90.7536C67.2974 87.4282 70.4996 82.4898 71.7466 76.8808H59.6102Z" fill="#262A36"/>
<path d="M83.8864 76.8808C85.027 79.2019 86.8912 81.0584 89.1783 82.1509C91.4654 83.2433 94.042 83.508 96.4925 82.9021C98.943 82.2963 101.125 80.8553 102.685 78.8116C104.246 76.7679 105.095 74.2407 105.095 71.6375C105.095 69.0344 104.246 66.5071 102.685 64.4634C101.125 62.4197 98.943 60.9787 96.4925 60.3729C94.042 59.7671 91.4654 60.0317 89.1783 61.1241C86.8912 62.2166 85.027 64.0731 83.8864 66.3943H71.75C72.997 60.7852 76.1993 55.8469 80.7457 52.5214C85.2922 49.1959 90.8646 47.7162 96.3997 48.3645C101.935 49.0128 107.045 51.7437 110.756 56.0363C114.466 60.3288 116.517 65.8824 116.517 71.6375C116.517 77.3926 114.466 82.9462 110.756 87.2388C107.045 91.5313 101.935 94.2623 96.3997 94.9106C90.8646 95.5589 85.2922 94.0791 80.7457 90.7536C76.1993 87.4282 72.997 82.4898 71.75 76.8808H83.8864Z" fill="#262A36"/>
</svg>
